<svg width="39" height="39" viewBox="0 0 39 39" fill="none" xmlns="http://www.w3.org/2000/svg">
<path d="M24.8 17.6C24.8 18.873 24.2943 20.0939 23.3941 20.9941C22.4939 21.8943 21.273 22.4 20 22.4C18.727 22.4 17.5061 21.8943 16.6059 20.9941C15.7057 20.0939 15.2 18.873 15.2 17.6C15.2 16.3269 15.7057 15.106 16.6059 14.2059C17.5061 13.3057 18.727 12.8 20 12.8C21.273 12.8 22.4939 13.3057 23.3941 14.2059C24.2943 15.106 24.8 16.3269 24.8 17.6Z" fill="white"/>
<path fill-rule="evenodd" clip-rule="evenodd" d="M19.5104 31.9904C13.1102 31.7336 8 26.4632 8 20C8 13.3724 13.3724 8 20 8C26.6276 8 32 13.3724 32 20C32 26.6276 26.6276 32 20 32H19.8356C19.7268 32 19.6184 31.9968 19.5104 31.9904ZM12.2996 27.572C12.2099 27.3143 12.1793 27.0398 12.2102 26.7687C12.2412 26.4976 12.3327 26.237 12.4781 26.0062C12.6236 25.7753 12.8191 25.5802 13.0503 25.4353C13.2814 25.2903 13.5423 25.1993 13.8134 25.169C18.491 24.6512 21.5378 24.698 26.1926 25.1798C26.4641 25.2081 26.7256 25.2979 26.9571 25.4425C27.1886 25.5871 27.3841 25.7827 27.5286 26.0142C27.6732 26.2458 27.763 26.5073 27.7912 26.7788C27.8194 27.0503 27.7853 27.3247 27.6914 27.581C29.6865 25.5626 30.8037 22.838 30.8 20C30.8 14.0354 25.9646 9.2 20 9.2C14.0354 9.2 9.2 14.0354 9.2 20C9.2 22.9496 10.3826 25.6232 12.2996 27.572Z" fill="white"/>
</svg>
