<svg width="39" height="39" viewBox="0 0 39 39" fill="none" xmlns="http://www.w3.org/2000/svg">
<path d="M8 29.2571V16.9143C8 16.48 8.1065 16.0686 8.3195 15.68C8.5325 15.2914 8.826 14.9714 9.2 14.72L18.2 8.54857C18.725 8.18286 19.325 8 20 8C20.675 8 21.275 8.18286 21.8 8.54857L30.8 14.72C31.175 14.9714 31.469 15.2914 31.682 15.68C31.895 16.0686 32.001 16.48 32 16.9143V29.2571C32 30.0114 31.706 30.6574 31.118 31.195C30.53 31.7326 29.824 32.0009 29 32H24.5C24.075 32 23.719 31.8683 23.432 31.605C23.145 31.3417 23.001 31.0162 23 30.6286V23.7714C23 23.3829 22.856 23.0574 22.568 22.795C22.28 22.5326 21.924 22.4009 21.5 22.4H18.5C18.075 22.4 17.719 22.5317 17.432 22.795C17.145 23.0583 17.001 23.3838 17 23.7714V30.6286C17 31.0171 16.856 31.3431 16.568 31.6064C16.28 31.8697 15.924 32.0009 15.5 32H11C10.175 32 9.469 31.7317 8.882 31.195C8.295 30.6583 8.001 30.0123 8 29.2571Z" fill="white"/>
</svg>
