<svg width="39" height="39" viewBox="0 0 39 39" fill="none" xmlns="http://www.w3.org/2000/svg">
<path d="M16.7164 31L16.2388 27.48C15.9801 27.3883 15.7365 27.2783 15.5081 27.15C15.2796 27.0217 15.0555 26.8842 14.8358 26.7375L11.2836 28.1125L8 22.8875L11.0746 20.7425C11.0547 20.6142 11.0448 20.4906 11.0448 20.3718V19.6293C11.0448 19.5098 11.0547 19.3858 11.0746 19.2575L8 17.1125L11.2836 11.8875L14.8358 13.2625C15.0547 13.1158 15.2836 12.9783 15.5224 12.85C15.7612 12.7217 16 12.6117 16.2388 12.52L16.7164 9H23.2836L23.7612 12.52C24.0199 12.6117 24.2639 12.7217 24.4931 12.85C24.7224 12.9783 24.9461 13.1158 25.1642 13.2625L28.7164 11.8875L32 17.1125L28.9254 19.2575C28.9453 19.3858 28.9552 19.5098 28.9552 19.6293V20.3707C28.9552 20.4902 28.9353 20.6142 28.8955 20.7425L31.9701 22.8875L28.6866 28.1125L25.1642 26.7375C24.9453 26.8842 24.7164 27.0217 24.4776 27.15C24.2388 27.2783 24 27.3883 23.7612 27.48L23.2836 31H16.7164ZM20.0597 23.85C21.2139 23.85 22.199 23.4742 23.0149 22.7225C23.8308 21.9708 24.2388 21.0633 24.2388 20C24.2388 18.9367 23.8308 18.0292 23.0149 17.2775C22.199 16.5258 21.2139 16.15 20.0597 16.15C18.8856 16.15 17.8953 16.5258 17.089 17.2775C16.2826 18.0292 15.8798 18.9367 15.8806 20C15.8814 21.0633 16.2846 21.9708 17.0901 22.7225C17.8957 23.4742 18.8856 23.85 20.0597 23.85Z" fill="white"/>
</svg>
