<svg width="25" height="25" viewBox="0 0 25 25" fill="none" xmlns="http://www.w3.org/2000/svg">
<path d="M12.5 2.08333C18.2531 2.08333 22.9166 6.74687 22.9166 12.5C22.9166 18.2531 18.2531 22.9167 12.5 22.9167C6.74686 22.9167 2.08331 18.2531 2.08331 12.5C2.08331 6.74687 6.74686 2.08333 12.5 2.08333ZM12.5 4.16667C10.2898 4.16667 8.17023 5.04464 6.60742 6.60744C5.04462 8.17025 4.16665 10.2899 4.16665 12.5C4.16665 14.7101 5.04462 16.8298 6.60742 18.3926C8.17023 19.9554 10.2898 20.8333 12.5 20.8333C14.7101 20.8333 16.8297 19.9554 18.3925 18.3926C19.9553 16.8298 20.8333 14.7101 20.8333 12.5C20.8333 10.2899 19.9553 8.17025 18.3925 6.60744C16.8297 5.04464 14.7101 4.16667 12.5 4.16667ZM7.81248 10.9375C8.22688 10.9375 8.62431 11.1021 8.91733 11.3951C9.21036 11.6882 9.37498 12.0856 9.37498 12.5C9.37498 12.9144 9.21036 13.3118 8.91733 13.6049C8.62431 13.8979 8.22688 14.0625 7.81248 14.0625C7.39808 14.0625 7.00065 13.8979 6.70763 13.6049C6.4146 13.3118 6.24998 12.9144 6.24998 12.5C6.24998 12.0856 6.4146 11.6882 6.70763 11.3951C7.00065 11.1021 7.39808 10.9375 7.81248 10.9375ZM12.5 10.9375C12.9144 10.9375 13.3118 11.1021 13.6048 11.3951C13.8979 11.6882 14.0625 12.0856 14.0625 12.5C14.0625 12.9144 13.8979 13.3118 13.6048 13.6049C13.3118 13.8979 12.9144 14.0625 12.5 14.0625C12.0856 14.0625 11.6882 13.8979 11.3951 13.6049C11.1021 13.3118 10.9375 12.9144 10.9375 12.5C10.9375 12.0856 11.1021 11.6882 11.3951 11.3951C11.6882 11.1021 12.0856 10.9375 12.5 10.9375ZM17.1875 10.9375C17.6019 10.9375 17.9993 11.1021 18.2923 11.3951C18.5854 11.6882 18.75 12.0856 18.75 12.5C18.75 12.9144 18.5854 13.3118 18.2923 13.6049C17.9993 13.8979 17.6019 14.0625 17.1875 14.0625C16.7731 14.0625 16.3757 13.8979 16.0826 13.6049C15.7896 13.3118 15.625 12.9144 15.625 12.5C15.625 12.0856 15.7896 11.6882 16.0826 11.3951C16.3757 11.1021 16.7731 10.9375 17.1875 10.9375Z" fill="black"/>
</svg>
