<svg width="39" height="39" viewBox="0 0 39 39" fill="none" xmlns="http://www.w3.org/2000/svg">
<path fill-rule="evenodd" clip-rule="evenodd" d="M9.7568 12.3176C8 13.637 8 15.7574 8 20C8 24.2426 8 26.3639 9.7568 27.6815C11.516 29 14.3432 29 20 29C25.6568 29 28.4852 29 30.242 27.6815C32 26.3648 32 24.2426 32 20C32 15.7574 32 13.6361 30.242 12.3176C28.4864 11 25.6568 11 20 11C14.3432 11 11.5148 11 9.7568 12.3176ZM26.6912 18.632C26.8372 18.494 26.9055 18.3186 26.8814 18.1433C26.8574 17.968 26.7428 17.8067 26.5623 17.6939C26.3818 17.5811 26.1497 17.5257 25.9155 17.5395C25.6812 17.5534 25.4635 17.6354 25.3088 17.768L23.1524 19.7084C22.7084 20.1089 22.4336 20.3528 22.2092 20.5049C22.1505 20.5476 22.0848 20.5845 22.0136 20.6147L22.0004 20.6192L21.9908 20.6156L21.9872 20.6147C21.9156 20.5846 21.8495 20.5477 21.7904 20.5049C21.566 20.3519 21.2924 20.1089 20.8472 19.7084L20.4968 19.3934C20.1032 19.0379 19.7468 18.7184 19.4156 18.4934C19.0544 18.2486 18.5996 18.0308 17.9996 18.0308C17.3996 18.0308 16.946 18.2486 16.5836 18.4934C16.2524 18.7184 15.8972 19.0379 15.5036 19.3934L13.3076 21.368C13.232 21.4361 13.175 21.5148 13.1398 21.5994C13.1047 21.6841 13.0922 21.7731 13.1029 21.8614C13.1246 22.0397 13.2399 22.2043 13.4234 22.3188C13.6069 22.4334 13.8435 22.4886 14.0813 22.4724C14.319 22.4561 14.5384 22.3696 14.6912 22.232L16.8476 20.2916C17.2916 19.8911 17.5664 19.6472 17.7908 19.4951C17.8495 19.4524 17.9152 19.4155 17.9864 19.3853L17.9948 19.3826L17.9996 19.3808L18.0128 19.3853C18.0844 19.4154 18.1505 19.4523 18.2096 19.4951C18.434 19.6481 18.7076 19.8911 19.1528 20.2916L19.5032 20.6066C19.898 20.9621 20.2532 21.2816 20.5844 21.5066C20.9456 21.7514 21.4004 21.9692 22.0004 21.9692C22.6004 21.9692 23.054 21.7514 23.4164 21.5066C23.7476 21.2816 24.1028 20.9621 24.4964 20.6066L26.6912 18.632Z" fill="white"/>
</svg>
