<svg width="39" height="39" viewBox="0 0 39 39" fill="none" xmlns="http://www.w3.org/2000/svg">
<mask id="mask0_163_847" style="mask-type:luminance" maskUnits="userSpaceOnUse" x="8" y="11" width="24" height="18">
<path d="M22.4001 11H17.6002C13.075 11 10.8119 11 9.40668 12.3185C8.3939 13.2669 8.1107 14.6326 8.0315 16.9062H31.9688C31.8896 14.6326 31.6064 13.2669 30.5936 12.3185C29.1884 11 26.9253 11 22.4001 11ZM17.6002 29H22.4001C26.9253 29 29.1884 29 30.5936 27.6815C31.9988 26.363 32 24.2424 32 20C32 19.5035 31.9992 19.0347 31.9976 18.5938H8.0027C8.0003 19.0347 7.9995 19.5035 8.0003 20C8.0003 24.2424 8.0003 26.3641 9.40668 27.6815C10.8131 28.9989 13.075 29 17.6002 29Z" fill="white"/>
<path fill-rule="evenodd" clip-rule="evenodd" d="M11.9002 24.5C11.9002 24.2762 11.9951 24.0616 12.1638 23.9034C12.3326 23.7451 12.5615 23.6562 12.8002 23.6562H17.6002C17.8389 23.6562 18.0678 23.7451 18.2366 23.9034C18.4053 24.0616 18.5002 24.2762 18.5002 24.5C18.5002 24.7238 18.4053 24.9384 18.2366 25.0966C18.0678 25.2549 17.8389 25.3438 17.6002 25.3438H12.8002C12.5615 25.3438 12.3326 25.2549 12.1638 25.0966C11.9951 24.9384 11.9002 24.7238 11.9002 24.5ZM19.7001 24.5C19.7001 24.2762 19.795 24.0616 19.9637 23.9034C20.1325 23.7451 20.3614 23.6562 20.6001 23.6562H22.4001C22.6388 23.6562 22.8677 23.7451 23.0365 23.9034C23.2053 24.0616 23.3001 24.2762 23.3001 24.5C23.3001 24.7238 23.2053 24.9384 23.0365 25.0966C22.8677 25.2549 22.6388 25.3438 22.4001 25.3438H20.6001C20.3614 25.3438 20.1325 25.2549 19.9637 25.0966C19.795 24.9384 19.7001 24.7238 19.7001 24.5Z" fill="black"/>
</mask>
<g mask="url(#mask0_163_847)">
<path d="M5.60033 6.5H34.4V33.5H5.60033V6.5Z" fill="white"/>
</g>
</svg>
